<svg width="10" height="12" viewBox="0 0 10 12" fill="none" xmlns="http://www.w3.org/2000/svg">
<path d="M2.39906 10.0258C2.48847 9.77671 2.57035 9.52376 2.64518 9.26591M6.25271 10.9504C6.50157 10.1372 6.69387 9.30233 6.82776 8.45365M8.73035 8.90721C8.90729 7.80275 9 6.66396 9 5.50008C9.00015 4.73721 8.83285 3.98683 8.51381 3.31946C8.19478 2.65209 7.73449 2.08965 7.17622 1.68502C6.61795 1.28039 5.98003 1.04684 5.32242 1.00635C4.6648 0.965846 4.0091 1.11972 3.41694 1.4535M1 7.7635C1.152 7.03738 1.23247 6.27963 1.23247 5.50008C1.23247 4.52155 1.50212 3.61553 1.96047 2.87741M5.11624 5.49954C5.11771 7.38946 4.78991 9.2603 4.15247 11M3.07765 7.13387C3.14118 6.59963 3.17412 6.05449 3.17412 5.50008C3.17412 4.90347 3.37871 4.3313 3.74288 3.90943C4.10706 3.48756 4.60098 3.25056 5.116 3.25056C5.63102 3.25056 6.12494 3.48756 6.48912 3.90943C6.85329 4.3313 7.05788 4.90347 7.05788 5.50008C7.05788 5.77374 7.05224 6.04577 7.04047 6.31616" stroke="#868F97" stroke-width="1.125" stroke-linecap="round" stroke-linejoin="round"/>
</svg>
